<svg width="1440" height="250" fill="none" xmlns="http://www.w3.org/2000/svg"><path fill="#3A3054" d="M0 0h1440v250H0z"/><mask id="a" style="mask-type:alpha" maskUnits="userSpaceOnUse" x="0" y="0" width="1440" height="250"><path fill="#fff" d="M0 0h1440v250H0z"/></mask><g mask="url(#a)" fill-rule="evenodd" clip-rule="evenodd" fill="#4B3F6B"><path d="M830-63c0 82 24 142 115 180 90 38 177 3 265 23s88 150 170 229c83 80 256 99 398 18 141-80 205-269 163-380s-123-212-514-212c-390 0-597 59-597 142ZM-263 571c29 77 73 124 171 127 99 4 168-60 256-73 89-13 136 108 241 153 106 44 275 0 378-126s96-325 16-413c-79-89-191-154-555-14-365 140-537 269-507 346ZM-514-377c0 82 24 142 115 180 90 38 177 3 265 23S-46-24 36 55c83 80 256 99 398 18C575-7 639-196 597-307S474-519 83-519c-390 0-597 59-597 142Z"/></g></svg>