<svg width="733" height="482" fill="none" xmlns="http://www.w3.org/2000/svg"><path d="M583 92c-21-22-37-49-62-67-40-29-96-32-142-14s-82 55-106 96c-12 22-22 45-40 63-16 15-36 25-55 35-31 17-61 37-81 65s-29 64-16 95c9 21 26 38 44 53 21 18 43 35 69 46 33 13 69 16 104 17 63 2 126 1 189-5 51-5 104-13 147-40 60-38 91-106 98-174 2-27 2-55-9-80-27-59-98-45-140-90Z" fill="#EFF1F7"/><path d="M178 202s-16-3-21 9 0 52 0 52l62 44-41-105Z" fill="#3F3D56"/><path d="m256 380-24 7c-4 1-8-1-9-5-1-3 1-7 5-8l24-7c4-1 8 1 9 5 1 3-1 7-5 8Z" fill="#2BD0D0"/><circle cx="255" cy="395" r="11" fill="#25233A"/><circle cx="253.5" cy="397.5" r="5.5" fill="#3F3D56"/><circle cx="210" cy="384" r="11" fill="#25233A"/><path d="M214 385a5 5 0 1 1-11 0 5 5 0 0 1 11 0Z" fill="url(#a)"/><circle cx="207" cy="399" r="11" fill="#25233A"/><path d="M216 400a5 5 0 1 1-11 0 5 5 0 0 1 11 0Z" fill="#3F3D56"/><path d="m257 391-51-10c-3-1-6-4-5-8 1-3 4-6 8-5l51 10c3 1 6 4 5 8-1 3-4 6-8 5Z" fill="#2BD0D0"/><path d="M226 310h14v59a7 7 0 1 1-14 0v-59Z" fill="#2BD0D0"/><path d="m231 387-24 7c-4 1-8-1-9-5-1-3 1-7 5-8l24-7c4-1 8 1 9 5 1 3-1 7-5 8Z" fill="#2BD0D0"/><path d="m236 386-3 1h-3 1l3-1h2Z" fill="url(#b)"/><path d="m261 373-1 4-21-4 1-3 13-4 5 1a7 7 0 0 1 3 6Z" fill="url(#c)"/><path opacity=".3" d="M225 371v-60h6v64l-3-1h-2 1l-2-3Z" fill="url(#d)"/><path opacity=".3" d="M262 390a7 7 0 0 1-4 0l-23-4h-1l-3 1h-1l-23 7c-3 1-7-1-8-5 2 2 5 2 7 1 3-2 14-5 21-6a8 8 0 0 0 5-7l7 3c9 3 23 5 23 5s2 2 0 5Z" fill="url(#e)"/><path d="m264 388-2 2 2-2Z" fill="url(#f)"/><path d="m226 371 2 3h-1l-21 6c-3-1-5-4-5-7a7 7 0 0 1 8-6l17 4Z" fill="url(#g)"/><path d="M259 89s0-20-17-19c-17 2-16-5-23-4s-15 8-13 17c3 8-6 10-12 17-6 6 1 12 11 18 10 7-1 5 5 15s25-3 25-3l24-41Z" fill="#503164"/><path d="M123 435h11v-94s1-24 24-26l230-33s8-1 13 15 9 78 9 78l64 8s2-109-21-115-324 25-324 25-22 116-6 142Z" fill="#2BD0D0"/><path opacity=".2" d="M123 435h11v-94s1-24 24-26l230-33s8-1 13 15 9 78 9 78l64 8s2-109-21-115-324 25-324 25-22 116-6 142Z" fill="url(#h)"/><path d="M62 304s6-32 46-40l285-33s28-1 41 7c13 7 31 14 39 49 7 35 9 95 9 95l-7 1s-10-109-21-115c-11-7-308 35-308 35s-20 4-22 34c-2 31 0 97 0 97l-62-25V304Z" fill="#2BD0D0"/><path opacity=".2" d="M355 244c-14-2-29-3-44-3l-33 4-98 13-5 2c-1 3 3 6 6 7 32 11 67 22 100 14 16-3 30-11 45-14 16-2 32 0 47-2 15-3 29-9 43-9l14-1c4-2 8-6 7-10-14-1-30-3-43-1-14 3-25 0-39 0Z" fill="url(#i)"/><path d="m267 259 1 2 16 11 70-16 2-5-89 8Z" fill="#2BD0D0"/><path d="m267 259 1 2 16 11 70-16 2-5-89 8Z" fill="url(#j)"/><path d="m268 259 62-13 26 5-71 17-17-9Z" fill="#2BD0D0"/><path d="m268 259 62-13 26 5-71 17-17-9Z" fill="url(#k)"/><path d="m248 270 14 1s4 0 5-3-6-9-7-9c0 0-19 5-17 11h5Z" fill="#2BD0D0"/><path d="m248 270 14 1s4 0 5-3-6-9-7-9c0 0-19 5-17 11h5Z" fill="url(#l)"/><path d="m79 416-7 22c-21 7-38 0-38 0l-5-23s26 9 50 1Z" fill="#2BD0D0"/><path d="m79 416-7 22c-21 7-38 0-38 0l-5-23s26 9 50 1Z" fill="url(#m)"/><path d="m87 396-2 17-6 3c-25 7-50-1-50-1l-5-3-2-16h65Z" fill="#2BD0D0"/><path d="m87 396-2 17-6 3c-25 7-50-1-50-1l-5-3-2-16h65Z" fill="url(#n)"/><ellipse cx="54.5" cy="395" rx="32.5" ry="6" fill="#2BD0D0"/><ellipse cx="54.5" cy="395" rx="32.5" ry="6" fill="url(#o)"/><path d="m40 265-10-5c-5-4-7-12-8-19-2-7-6-15-12-17-3 0-6 0-8 2s-2 5-2 8l3 8c3 6 3 13 2 19 0 6-3 11-1 16 2 9 13 14 14 24 0 6-5 12-4 18 1 4 5 8 5 13s-5 9-4 14c0 6 5 9 8 13s5 8 5 12l1 9 3 5 3 6c4 4 10 6 15 4v-21c1-13 6-27 3-40-1-5-4-10-4-15l2-13 1-27c-1-8-6-11-12-14Z" fill="#2BD0D0"/><path d="M60 301c0 6 1 12-1 18l-6 12c-4 10 1 21 0 32l-3 12-1 17c0 2 2 4 4 4 3 2 6 2 10 3-1-6 0-13 3-19 5-8 16-14 18-24 1-7-2-13-2-20 0-5 2-9 5-13l8-9c5-8 4-19 2-28-2-10-3-21 4-28l6-7c5-5 4-14-1-19s-13-6-20-4c-2 1-5 2-7 5-3 4-2 11 0 17 1 4 2 10 0 15-1 4-4 6-7 8-7 7-12 17-12 28Z" fill="#2BD0D0"/><path d="m53 355-3 19v21c-5 2-11 0-15-4l-3-6-3-5-1-9c0-4-2-8-5-12s-8-7-8-13c-1-5 4-9 4-14s-4-9-5-13c-1-6 4-12 4-18-1-10-12-15-14-24-2-5 0-10 1-16s1-13-2-19l-3-8c0-3 0-6 2-8s5-2 8-2c7 2 10 10 12 17 1 7 3 15 8 19l10 5c6 3 11 6 12 14l-1 27-2 13c0 5 2 9 4 13v2c2 7 1 14 0 21Z" fill="#30C59B"/><path d="m50 394-1-2a67 67 0 0 1 1-17v19Z" fill="url(#p)"/><path d="m107 251-6 7c-7 7-6 18-4 28 2 9 3 20-2 28l-8 9c-3 4-5 8-5 13 0 7 3 13 2 20-2 10-13 16-18 24-3 6-5 13-3 19-4-1-7-1-10-3l-3-1-1-3a51 51 0 0 1 1-17l3-12v-8a53 53 0 0 0-1-23l1-1 6-12c2-6 1-12 1-18 0-11 5-21 12-28 3-2 6-4 7-8 2-5 1-11 0-15-2-6-3-13 0-17 2-3 5-4 7-5 7-2 15-1 20 4s6 14 1 19Z" fill="#30C59B"/><path d="M226 146s-28 4-41 35-6 69-6 72 39 18 51 18c11 0 13-11 13-11l-20-9 60-7h11l-6 10 20 2c8 0 13-15 14-23s-35-75-40-79c-5-5-20-14-56-8Z" fill="#2BD0D0"/><path d="M258 89s5 3 5 12-3 23-6 26c-3 4-13 5-13 5s5 13 9 17c5 3-4 15-12 11-7-4-17-14-17-14s7-12 5-19c-3-6-11-29-5-35 7-6 21-15 34-3Z" fill="url(#q)"/><path opacity=".3" d="m214 190-4 54 13 7 11-2-13-16-7-43ZM284 187s18 42 10 57l-6-1-4-56Z" fill="#fff"/><path d="M236 258s-7 6-4 10c3 5 6 5 9 3s9-7 16-5 9 4 9 4 4-3 3-5-8-10-11-11c-2-1-11 2-11 2s-6-2-11 2Z" fill="url(#r)"/><path d="M295 246s-6 0-8 5l-2 4s4 1 5-1c2-2 3-1 3-1v2s10 2 14 0l6-3 2-4-7-4-13 2Z" fill="url(#s)"/><path d="M329 290s22 17 20 39l-5 56s-9 4-15 0c-6-3-9-54-12-59s-20-27-39-29l51-7Z" fill="#25233A"/><path d="M219 306s10 10 29 13 27 6 33 22 11 50 13 54c2 3 9 2 9 2s5-5 5-33c0-38 2-45-7-55-10-9-19-12-19-12l-63 9Z" fill="#3F3D56"/><path d="m294 396 2 14h3l23 1c1-1-1-11-10-11-8 0-8-2-8-2l-10-2ZM331 386l4 14 38-5s1-9-11-8l-9 2c-4 0-8-1-10-4l-12 1Z" fill="#25233A"/><path d="m462 212-142 8c-4 0-7-2-7-6V112c0-4 3-7 7-7l142-3a7 7 0 0 1 7 7v96c0 4-3 7-7 7Z" fill="#2BD0D0"/><path d="m470 212-142 8c-4 0-7-2-7-6V112c0-4 3-7 7-7l142-3c4 0 7 3 7 7v96c0 4-3 7-7 7Z" fill="#2BD0D0"/><path d="m470 212-142 8c-4 0-7-2-7-6V112c0-4 3-7 7-7l142-3c4 0 7 3 7 7v96c0 4-3 7-7 7Z" fill="url(#t)"/><path d="m428 251-37 4s-11-2-10-4l12-3v-66s-1-2-6-3l-2-1h-2c-3-2 0-4 4-4h30s10 3 11 18v59Z" fill="#3A3054"/><path d="m398 251-7 4s-11-2-10-4l12-3v-66l-6-3-4-1c-3-2 0-4 4-4 3 0 9 4 10 6l1 71Z" fill="#51466B"/><path d="m263 389-1 1 1-1Z" fill="url(#u)"/><defs><linearGradient id="a" x1="203" y1="390" x2="214" y2="390" gradientUnits="userSpaceOnUse"><stop stop-color="#183866"/><stop offset="1" stop-color="#1A7FC1"/></linearGradient><linearGradient id="b" x1="230" y1="387" x2="236" y2="387" gradientUnits="userSpaceOnUse"><stop/><stop offset="1" stop-opacity="0"/></linearGradient><linearGradient id="c" x1="263.9" y1="107.8" x2="276.2" y2="130.9" gradientUnits="userSpaceOnUse"><stop/><stop offset="1" stop-opacity="0"/></linearGradient><linearGradient id="d" x1="289.5" y1="-96.6" x2="244" y2="-96.7" gradientUnits="userSpaceOnUse"><stop/><stop offset="1" stop-opacity="0"/></linearGradient><linearGradient id="e" x1="357.1" y1="100" x2="346.5" y2="50.9" gradientUnits="userSpaceOnUse"><stop/><stop offset="1" stop-opacity="0"/></linearGradient><linearGradient id="f" x1="309.8" y1="54.3" x2="305.9" y2="53.1" gradientUnits="userSpaceOnUse"><stop/><stop offset="1" stop-opacity="0"/></linearGradient><linearGradient id="g" x1="258.1" y1="99.5" x2="241.6" y2="118.4" gradientUnits="userSpaceOnUse"><stop/><stop offset="1" stop-opacity="0"/></linearGradient><linearGradient id="h" x1="524.5" y1="22.5" x2="33.1" y2="-84.3" gradientUnits="userSpaceOnUse"><stop/><stop offset="1" stop-opacity="0"/></linearGradient><linearGradient id="i" x1="212.1" y1="244.7" x2="474.1" y2="244.7" gradientUnits="userSpaceOnUse"><stop stop-color="#183866"/><stop offset="1" stop-color="#1A7FC1"/></linearGradient><linearGradient id="j" x1="75.5" y1="225.2" x2="77" y2="332.9" gradientUnits="userSpaceOnUse"><stop/><stop offset="1" stop-opacity="0"/></linearGradient><linearGradient id="k" x1="197.2" y1="250.8" x2="206.2" y2="297.2" gradientUnits="userSpaceOnUse"><stop/><stop offset="1" stop-opacity="0"/></linearGradient><linearGradient id="l" x1="237.5" y1="260.7" x2="236.9" y2="279.1" gradientUnits="userSpaceOnUse"><stop/><stop offset="1" stop-opacity="0"/></linearGradient><linearGradient id="m" x1="126.1" y1="48" x2="82.4" y2="41.7" gradientUnits="userSpaceOnUse"><stop/><stop offset="1" stop-opacity="0"/></linearGradient><linearGradient id="n" x1="133.4" y1="77.2" x2="98.5" y2="67.7" gradientUnits="userSpaceOnUse"><stop/><stop offset="1" stop-opacity="0"/></linearGradient><linearGradient id="o" x1="-192.1" y1="370.8" x2="-192.8" y2="463.7" gradientUnits="userSpaceOnUse"><stop/><stop offset="1" stop-opacity="0"/></linearGradient><linearGradient id="p" x1="78.2" y1="64.7" x2="74.7" y2="64.8" gradientUnits="userSpaceOnUse"><stop/><stop offset="1" stop-opacity="0"/></linearGradient><linearGradient id="q" x1="222" y1="161" x2="263" y2="161" gradientUnits="userSpaceOnUse"><stop stop-color="#ECC4D7"/><stop offset=".4" stop-color="#EFD4D1"/><stop offset="1" stop-color="#F2EAC9"/></linearGradient><linearGradient id="r" x1="268.6" y1="233.6" x2="306.6" y2="233.6" gradientUnits="userSpaceOnUse"><stop stop-color="#ECC4D7"/><stop offset=".4" stop-color="#EFD4D1"/><stop offset="1" stop-color="#F2EAC9"/></linearGradient><linearGradient id="s" x1="322.3" y1="239.9" x2="352.3" y2="239.9" gradientUnits="userSpaceOnUse"><stop stop-color="#ECC4D7"/><stop offset=".4" stop-color="#EFD4D1"/><stop offset="1" stop-color="#F2EAC9"/></linearGradient><linearGradient id="t" x1="450.2" y1="203" x2="326.8" y2="346.4" gradientUnits="userSpaceOnUse"><stop stop-color="#362958" stop-opacity=".5"/><stop offset="1" stop-color="#34313D" stop-opacity="0"/></linearGradient><linearGradient id="u" x1="302.1" y1="46.2" x2="301" y2="45.7" gradientUnits="userSpaceOnUse"><stop/><stop offset="1" stop-opacity="0"/></linearGradient></defs></svg>