<svg width="1110" height="168" fill="none" xmlns="http://www.w3.org/2000/svg"><rect width="1110" height="168" rx="10" fill="#3A3054"/><mask id="a" style="mask-type:alpha" maskUnits="userSpaceOnUse" x="0" y="0" width="1110" height="168"><rect width="1110" height="168" rx="10" fill="#fff"/></mask><g mask="url(#a)" fill-rule="evenodd" clip-rule="evenodd" fill="#4B3F6B"><path d="M647-94c0 53 16 91 73 115 58 24 113 2 169 15s56 95 108 145c52 51 163 63 253 12s131-171 104-242-78-135-327-135-380 37-380 90ZM-134 119c0 53 16 91 73 115 58 24 113 2 169 15s56 95 108 145c52 51 163 63 253 12s131-171 104-242S495 29 246 29s-380 37-380 90Z"/></g></svg>