<svg width="121" height="33" fill="none" xmlns="http://www.w3.org/2000/svg"><path fill-rule="evenodd" clip-rule="evenodd" d="M35 25h5V11l-1-2-2-2h-2l-4 1-3 2V0h-5v25h5V15l1-2 1-1h4l1 3v10ZM16 7l1 1 2-5a28 28 0 0 0-4-1 19 19 0 0 0-5-1H7L4 3a7 7 0 0 0-2 6v2l1 2 2 1a20 20 0 0 0 4 1l2 1 1 1h1l1 1c0 2-1 2-3 2H8a19 19 0 0 1-4-2l-1-1-2 5 2 2a22 22 0 0 0 8 1h3l3-1a6 6 0 0 0 3-6l-1-3-1-2-3-1a29 29 0 0 0-3-2h-2L9 9H8L7 8c0-2 1-2 3-2h2a15 15 0 0 1 4 1Zm36 18h-4l-3-2-1-3a10 10 0 0 1 1-10l3-2 4-1 5 1 3 2 1 3a10 10 0 0 1-1 10l-3 2h-5Zm-2-6-1-3v-2l1-1a4 4 0 0 1 2-2c2 0 3 1 3 2l1 3v2l-1 1-1 1-2 1-2-2Zm26-7h-3l-3 2v11h-5V7h5v4l2-3 3-1h1v5Zm12 13 2-1-1-4h-3l-1-1v-8h4V7h-4V1h-5v6h-2v4h2v12a4 4 0 0 0 3 2h5Zm5-25h5v19l2 2a4 4 0 0 0 2-1v4l-2 1h-3l-3-1-1-3V0Zm12 28h-1v4a8 8 0 0 0 3 1 7 7 0 0 0 7-5l7-21h-6l-3 13-4-13h-6l7 18-1 2-2 1h-1Z" fill="#fff"/></svg>